# AST/ASF file generated using VICON BodyLanguage
# -----------------------------------------------
:version 1.10
:name VICON
:units
  mass 1.0
  length 0.45
  angle deg
:documentation
   .ast/.asf automatically generated from VICON data using
   VICON BodyBuilder and BodyLanguage model FoxedUp or BRILLIANT.MOD
:root
   order TX TY TZ RX RY RZ
   axis XYZ
   position 0 0 0  
   orientation 0 0 0 
:bonedata
  begin
     id 1 
     name lhipjoint
     direction 0.601702 -0.665326 0.441924 
     length 2.60689 
     axis 0 0 0  XYZ
  end
  begin
     id 2 
     name lfemur
     direction 0.34202 -0.939693 0  
     length 6.99849  
     axis 0 0 20  XYZ
    dof rx ry rz
    limits (-160.0 20.0)
           (-70.0 70.0)
           (-60.0 70.0)
  end
  begin
     id 3 
     name ltibia
     direction 0.34202 -0.939693 0   
     length 7.33734   
     axis 0 0 20   XYZ
    dof rx
    limits (-10.0 170.0)
  end
  begin
     id 4 
     name lfoot
     direction 0.0879468 -0.241632 0.966374   
     length 1.95247   
     axis -90 7.62852e-016 20   XYZ
    dof rx rz
    limits (-45.0 90.0)
           (-70.0 20.0)
  end
  begin
     id 5 
     name ltoes
     direction 1.53555e-011 -4.22053e-011 1   
     length 0.981458   
     axis -90 7.62852e-016 20   XYZ
    dof rx
    limits (-90.0 20.0)
  end
  begin
     id 6 
     name rhipjoint
     direction -0.524152 -0.709394 0.471195   
     length 2.44495  
     axis 0 0 0  XYZ 
  end
  begin
     id 7 
     name rfemur
     direction -0.34202 -0.939693 0   
     length 6.63298   
     axis 0 0 -20   XYZ
    dof rx ry rz
    limits (-160.0 20.0)
           (-70.0 70.0)
           (-70.0 60.0)
  end
  begin
     id 8 
     name rtibia
     direction -0.34202 -0.939693 0   
     length 7.43066   
     axis 0 0 -20   XYZ
    dof rx
    limits (-10.0 170.0)
 end
 begin
     id 9 
     name rfoot
     direction -0.113818 -0.312714 0.943003   
     length 2.04792  
     axis -90 -7.62852e-016 -20   XYZ
    dof rx rz
    limits (-45.0 90.0)
           (-20.0 70.0)
  end
  begin
     id 10 
     name rtoes
     direction -1.53508e-011 -4.21689e-011 1   
     length 1.02013   
     axis -90 -7.62852e-016 -20   XYZ
    dof rx
    limits (-90.0 20.0)
  end
  begin
     id 11 
     name lowerback
     direction -0.0334041 0.990787 -0.131244   
     length 2.12417   
     axis 0 0 0   XYZ
    dof rx ry rz
    limits (-20.0 45.0)
           (-30.0 30.0)
           (-30.0 30.0)
  end
  begin
     id 12 
     name upperback
     direction -0.00386223 0.999243 -0.0387184   
     length 2.13824   
     axis 0 0 0   XYZ
    dof rx ry rz
    limits (-20.0 45.0)
           (-30.0 30.0)
           (-30.0 30.0)
  end
  begin
     id 13 
     name thorax
     direction 0.00911962 0.999708 0.0223632   
     length 2.17223   
     axis 0 0 0   XYZ
    dof rx ry rz
    limits (-20.0 45.0)
           (-30.0 30.0)
           (-30.0 30.0)
  end
  begin
     id 14 
     name lowerneck
     direction 0.0180441 0.990527 0.136127   
     length 1.79499   
     axis 0 0 0   XYZ
    dof rx ry rz
    limits (-20.0 45.0)
           (-30.0 30.0)
           (-30.0 30.0)
  end
  begin
     id 15 
     name upperneck
     direction 0.00566481 0.961662 -0.274179   
     length 1.81138   
     axis 0 0 0   XYZ
    dof rx ry rz
    limits (-20.0 45.0)
           (-30.0 30.0)
           (-30.0 30.0)
  end
  begin
     id 16
     name head
     direction 0.000922185 0.994286 -0.106749  
     length 1.84109  
     axis 0 0 0   XYZ
    dof rx ry rz
    limits (-20.0 45.0)
           (-30.0 30.0)
           (-30.0 30.0)
  end
  begin
     id 17 
     name lclavicle
     direction 0.916316 0.39017 -0.0901807  
     length 3.48327  
     axis 0 0 0   XYZ
    dof ry rz
    limits (-20.0 10.0)
           (0.0 20.0)
  end
  begin
     id 18 
     name lhumerus
     direction 1 -4.4897e-011 -7.31988e-029   
     length 4.85247   
     axis 180 -30 -90   XYZ
    dof rx ry rz
    limits (-60.0 90.0)
           (-90.0 90.0)
           (-90.0 90.0)
  end
  begin
     id 19
     name lradius
     direction 1 -4.4895e-011 9.36002e-027   
     length 3.55584   
     axis 180 -30 -90   XYZ
    dof rx
    limits (-10.0 170.0)
  end
  begin
     id 20
     name lwrist
     direction 1 -4.48975e-011 1.73237e-026   
     length 1.77792   
     axis -9.60847e-015 90 90   XYZ
    dof ry
    limits (-180.0 0.0)
 end
  begin
     id 21 
     name lhand
     direction 1 -4.48951e-011 3.46425e-026   
     length 0.693203   
     axis -2.21073e-014 90 90   XYZ
    dof rx rz
    limits (-90.0 90.0)
           (-45.0 45.0)
  end
  begin
     id 22 
     name lfingers
     direction 1 -4.48937e-011 6.92793e-026   
     length 0.558878   
     axis -4.42155e-014 90 90   XYZ
    dof rx
    limits (0.0 90.0)
  end
  begin
     id 23
     name lthumb
     direction 0.707107 -6.34959e-011 0.707107   
     length 0.802441   
     axis -90 45 6.0103e-014   XYZ
    dof rx rz
    limits (-45.0 45.0)
           (-45.0 45.0)
  end
  begin
     id 24 
     name rclavicle
     direction -0.932839 0.352129 -0.0762679   
     length 3.52686  
     axis 0 0 0   XYZ 
    dof ry rz
    limits (-10.0 20.0)
           (-20.0 0.0)
  end
  begin
     id 25 
     name rhumerus
     direction -1 -4.48974e-011 2.90424e-028  
     length 4.64462   
     axis 180 30 90   XYZ
    dof rx ry rz
    limits (-90.0 60.0)
           (-90.0 90.0)
           (-90.0 90.0)
  end
  begin
     id 26 
     name rradius
     direction -1 -4.48956e-011 7.17421e-027   
     length 3.40703   
     axis 180 30 90   XYZ
    dof rx
    limits (-10.0 170.0)
  end
  begin
     id 27 
     name rwrist
     direction -1 -4.48971e-011 1.73232e-026   
     length 1.70352   
     axis -9.60847e-015 -90 -90   XYZ
    dof ry
    limits (-180.0 0.0)
  end
  begin
     id 28
     name rhand
     direction -1 -4.49004e-011 3.46531e-026   
     length 0.619577   
     axis -2.21073e-014 -90 -90   XYZ
    dof rx rz
    limits (-90.0 90.0)
           (-45.0 45.0)
  end
  begin
     id 29
     name rfingers
     direction -1 -4.48859e-011 6.92483e-026   
     length 0.499519   
     axis -4.42155e-014 -90 -90   XYZ
    dof rx
    limits (0.0 90.0)
  end
  begin
     id 30
     name rthumb
     direction -0.707107 -6.34911e-011 0.707107   
     length 0.717212   
     axis -90 -45 -6.0103e-014   XYZ
    dof rx rz
    limits (-45.0 45.0)
           (-45.0 45.0)
  end
:hierarchy
  begin
    root lhipjoint rhipjoint lowerback
    lhipjoint lfemur
    lfemur ltibia
    ltibia lfoot
    lfoot ltoes
    rhipjoint rfemur
    rfemur rtibia
    rtibia rfoot
    rfoot rtoes
    lowerback upperback
    upperback thorax
    thorax lowerneck lclavicle rclavicle
    lowerneck upperneck
    upperneck head
    lclavicle lhumerus
    lhumerus lradius
    lradius lwrist
    lwrist lhand lthumb
    lhand lfingers
    rclavicle rhumerus
    rhumerus rradius
    rradius rwrist
    rwrist rhand rthumb
    rhand rfingers
  end

#!OML:ASF Y:\EmotionMaleHayes\Project 1\Capture day 1\Session 1\Male1.ASF
:FULLY-SPECIFIED
:DEGREES
1
root -28.5007 17.065 1.10707 37.3784 84.1087 37.8151
lowerback 4.16695 2.11103 -6.56299
upperback -0.53798 2.45665 -1.74328
thorax -3.09585 1.33258 1.70033
lowerneck -20.7018 2.84361 5.6889
upperneck 27.3964 2.96533 -1.64072
head 12.6832 1.8267 -1.06093
rclavicle -2.40467e-014 6.36111e-015
rhumerus -36.31 2.62046 -90.8854
rradius 30.3243
rwrist 3.82922
rhand -7.68693 -33.31
rfingers 7.12502
rthumb 18.2101 -62.4776
lclavicle -2.40467e-014 6.36111e-015
lhumerus -34.0065 -7.80244 90.36
lradius 23.0698
lwrist -15.1096
lhand -16.2855 -24.7411
lfingers 7.12502
lthumb 9.92471 5.0049
rfemur 8.52621 -2.93338 8.52973
rtibia 2.59775
rfoot -15.3937 -2.42604
rtoes 3.82037
lfemur 12.6288 1.70697 -21.6855
ltibia -2.92487
lfoot -13.3723 15.268
ltoes -4.16513
2
root -28.4998 17.0648 1.10225 38.8211 84.0359 39.2193
lowerback 4.13224 2.07574 -6.7047
upperback -0.560876 2.40444 -1.7735
thorax -3.10081 1.30984 1.75235
lowerneck -20.6125 2.85254 5.60563
upperneck 27.289 2.98313 -1.55712
head 12.6193 1.83555 -1.01288
rclavicle -2.43045e-014 2.34566e-014
rhumerus -36.3783 2.8319 -90.9699
rradius 30.4175
rwrist 3.86456
rhand -7.75017 -33.303
rfingers 7.12502
rthumb 18.1492 -62.4763
lclavicle -2.43045e-014 2.34566e-014
lhumerus -33.9964 -7.45312 90.2271
lradius 23.0603
lwrist -15.1013
lhand -15.5276 -25.0615
lfingers 7.12502
lthumb 10.6559 4.64832
rfemur 8.48031 -3.08772 8.26902
rtibia 2.5887
rfoot -15.3333 -2.30172
rtoes 3.66902
lfemur 12.5174 1.75107 -21.9005
ltibia -2.81567
lfoot -13.4868 15.1657
ltoes -3.77055
3
root -28.4979 17.0661 1.09954 40.1193 83.9689 40.529
lowerback 4.12917 2.07102 -6.84634
upperback -0.568328 2.39098 -1.8198
thorax -3.10987 1.30619 1.78392
lowerneck -20.5954 2.84798 5.6902
upperneck 27.3541 2.98665 -1.66623
head 12.6456 1.83328 -1.06835
rclavicle 2.14222e-014 -1.78906e-014
rhumerus -36.4085 2.79951 -90.9566
rradius 30.3105
rwrist 4.09439
rhand -7.86546 -32.8054
rfingers 7.12502
rthumb 18.0383 -61.9889
lclavicle 2.14222e-014 -1.78906e-014
lhumerus -33.9409 -7.14463 90.0831
lradius 22.9588
lwrist -15.239
lhand -14.8332 -25.1994
lfingers 7.12502
lthumb 11.3256 4.47477
rfemur 8.50906 -3.15047 8.05553
rtibia 2.53975
rfoot -15.246 -2.26332
rtoes 3.2624
lfemur 12.5202 1.85469 -22.0526
ltibia -2.81019
lfoot -13.4569 14.967
ltoes -3.58098
4
root -28.4967 17.0676 1.09805 40.4202 83.95 40.8998
lowerback 4.19795 2.08536 -6.89384
upperback -0.554719 2.40227 -1.83798
thorax -3.13668 1.31312 1.78833
lowerneck -20.5654 2.85174 5.68546
upperneck 27.3447 2.97751 -1.60599
head 12.6344 1.83733 -1.04621
rclavicle 1.78254e-014 -8.34896e-015
rhumerus -36.4323 2.69971 -90.9217
rradius 30.2954
rwrist 4.17218
rhand -7.8389 -32.6858
rfingers 7.12502
rthumb 18.0638 -61.867
lclavicle 1.78254e-014 -8.34896e-015
lhumerus -33.9214 -7.02526 89.9844
lradius 22.9687
lwrist -15.2332
lhand -14.9688 -25.2566
lfingers 7.12502
lthumb 11.1948 4.42473
rfemur 8.61264 -3.00043 8.04124
rtibia 2.48663
rfoot -15.2274 -2.39287
rtoes 3.57467
lfemur 12.6279 1.89455 -22.0858
ltibia -2.86551
lfoot -13.3179 14.9296
ltoes -3.83831
5
root -28.4959 17.0677 1.0969 39.7581 83.9779 40.2863
lowerback 4.2773 2.10338 -6.81597
upperback -0.553381 2.42302 -1.83566
thorax -3.17842 1.32301 1.74299
lowerneck -20.5669 2.83752 5.75912
upperneck 27.3297 2.95511 -1.68697
head 12.6305 1.82371 -1.09356
rclavicle -1.68501e-014 4.77083e-015
rhumerus -36.4278 2.53856 -90.8627
rradius 30.2526
rwrist 4.26178
rhand -7.7219 -32.4793
rfingers 7.12502
rthumb 18.1764 -61.65
lclavicle -1.68501e-014 4.77083e-015
lhumerus -33.9146 -6.89476 89.8544
lradius 23.0321
lwrist -15.0855
lhand -15.1941 -25.5608
lfingers 7.12502
lthumb 10.9775 4.13215
rfemur 8.65864 -3.01763 8.10133
rtibia 2.50564
rfoot -15.2469 -2.32004
rtoes 4.54705
lfemur 12.7367 1.85684 -22.012
ltibia -2.94747
lfoot -13.2736 14.9664
ltoes -3.59688
6
root -28.496 17.0664 1.09616 38.5085 84.0565 39.0381
lowerback 4.29874 2.12619 -6.64535
upperback -0.546947 2.46028 -1.8317
thorax -3.17941 1.33817 1.64898
lowerneck -20.6106 2.79417 5.8704
upperneck 27.3209 2.88182 -1.79458
head 12.6364 1.78741 -1.1658
rclavicle -1.49151e-014 2.06736e-014
rhumerus -36.3977 2.39983 -90.8665
rradius 30.1609
rwrist 4.42976
rhand -7.75239 -32.231
rfingers 7.12502
rthumb 18.1471 -61.4045
lclavicle -1.49151e-014 2.06736e-014
lhumerus -33.963 -7.23437 89.9369
lradius 23.0723
lwrist -15.0933
lhand -14.8733 -25.1639
lfingers 7.12502
lthumb 11.287 4.51237
rfemur 8.64443 -3.14464 8.23824
rtibia 2.56959
rfoot -15.261 -2.16984
rtoes 5.18469
lfemur 12.7891 1.80151 -21.8412
ltibia -3.00438
lfoot -13.3815 14.9614
ltoes -3.03665
7
root -28.4953 17.0648 1.09535 37.8669 84.1069 38.4179
lowerback 4.30575 2.14775 -6.54756
upperback -0.523389 2.4944 -1.84748
thorax -3.15642 1.35226 1.5762
lowerneck -20.6809 2.76515 5.94855
upperneck 27.3492 2.80932 -1.80178
head 12.6607 1.76244 -1.19349
rclavicle -1.11506e-014 3.4191e-014
rhumerus -36.3906 2.27055 -90.8981
rradius 30.1516
rwrist 4.54621
rhand -7.78467 -32.2325
rfingers 7.12502
rthumb 18.116 -61.4088
lclavicle -1.11506e-014 3.4191e-014
lhumerus -33.9221 -7.4307 89.9217
lradius 23.0879
lwrist -14.8136
lhand -14.198 -25.0919
lfingers 7.12502
lthumb 11.9382 4.5477
rfemur 8.69954 -3.0339 8.3754
rtibia 2.52849
rfoot -15.2847 -2.28552
rtoes 5.13617
lfemur 12.8241 1.80466 -21.7398
ltibia -3.00721
lfoot -13.4346 14.9589
ltoes -3.11887
8
root -28.4949 17.0649 1.09508 38.4021 84.0636 38.9523
lowerback 4.31427 2.16298 -6.63629
upperback -0.511183 2.50998 -1.88197
thorax -3.15217 1.36133 1.58848
lowerneck -20.7927 2.7776 6.02848
upperneck 27.3751 2.78711 -1.79488
head 12.6947 1.761 -1.20719
rclavicle 1.19892e-015 1.98785e-014
rhumerus -36.3438 2.15116 -90.892
rradius 30.1518
rwrist 4.59834
rhand -7.66126 -32.4958
rfingers 7.12502
rthumb 18.2348 -61.6611
lclavicle 1.19892e-015 1.98785e-014
lhumerus -33.9964 -7.80716 90.094
lradius 23.2054
lwrist -14.8693
lhand -16.268 -25.1666
lfingers 7.12502
lthumb 9.94162 4.57864
rfemur 8.72748 -2.84818 8.34986
rtibia 2.45463
rfoot -15.3246 -2.46053
rtoes 4.81387
lfemur 12.7885 1.93717 -21.777
ltibia -2.94715
lfoot -13.3172 14.8911
ltoes -3.6545
9
root -28.4954 17.0673 1.09379 38.5574 84.0386 39.1217
lowerback 4.38759 2.17731 -6.69016
upperback -0.511993 2.51989 -1.88258
thorax -3.19754 1.3684 1.61395
lowerneck -20.7982 2.77924 5.97327
upperneck 27.3262 2.78068 -1.71523
head 12.6736 1.76172 -1.16833
rclavicle -3.33523e-014 2.98177e-014
rhumerus -36.2924 2.04841 -90.8335
rradius 30.0684
rwrist 4.70462
rhand -7.6243 -32.5154
rfingers 7.12502
rthumb 18.2703 -61.6774
lclavicle -3.33523e-014 2.98177e-014
lhumerus -34.0265 -7.8265 90.1231
lradius 23.2039
lwrist -15.0594
lhand -15.5248 -24.6296
lfingers 7.12502
lthumb 10.6585 5.08004
rfemur 8.72292 -2.7462 8.34375
rtibia 2.47226
rfoot -15.3849 -2.53982
rtoes 4.13856
lfemur 12.7757 2.0378 -21.782
ltibia -2.89055
lfoot -13.2155 14.7917
ltoes -3.73042
